<?xml version="1.0" encoding="utf-8"?>
<!-- Generator: Adobe Illustrator 16.0.0, SVG Export Plug-In . SVG Version: 6.00 Build 0)  -->
<!DOCTYPE svg PUBLIC "-//W3C//DTD SVG 1.1//EN" "http://www.w3.org/Graphics/SVG/1.1/DTD/svg11.dtd">
<svg version="1.1" id="Layer_1" xmlns="http://www.w3.org/2000/svg" xmlns:xlink="http://www.w3.org/1999/xlink" x="0px" y="0px"
	 width="81px" height="81px" viewBox="0 0 81 81" enable-background="new 0 0 81 81" xml:space="preserve">
<g>
	<rect x="-6.75" y="-6.75" fill="#72CFEB" stroke="#000000" stroke-miterlimit="10" width="94.5" height="94.5"/>
	<path fill="#FFFFFF" d="M57.672,54.391l-4.188-4.188l-3.334-3.334c1.717-2.412,2.732-5.354,2.732-8.533
		c0-8.149-6.629-14.779-14.778-14.779s-14.778,6.63-14.778,14.779c0,8.148,6.629,14.779,14.778,14.779
		c3.403,0,6.534-1.17,9.036-3.109l5.729,5.73c0.068,0.07,0.146,0.125,0.229,0.184l1.521,1.521L57.672,54.391z M38.107,49.639
		c-6.232,0-11.301-5.07-11.301-11.302c0-6.232,5.07-11.301,11.301-11.301c6.229,0,11.301,5.069,11.301,11.301
		c0,2.593-0.887,4.978-2.361,6.886c-0.486,0.631-1.033,1.213-1.643,1.729C43.436,48.623,40.889,49.639,38.107,49.639z"/>
</g>
</svg>
