<?xml version="1.0" encoding="utf-8"?>
<!-- Generator: Adobe Illustrator 16.0.0, SVG Export Plug-In . SVG Version: 6.00 Build 0)  -->
<!DOCTYPE svg PUBLIC "-//W3C//DTD SVG 1.1//EN" "http://www.w3.org/Graphics/SVG/1.1/DTD/svg11.dtd">
<svg version="1.1" id="Layer_1" xmlns="http://www.w3.org/2000/svg" xmlns:xlink="http://www.w3.org/1999/xlink" x="0px" y="0px"
	 width="88.03px" height="86px" viewBox="121.02 0 88.03 86" enable-background="new 121.02 0 88.03 86" xml:space="preserve">
<g>
	<g>
		<path fill="#207245" d="M209.01,66.05c-0.01-17.35-0.03-34.7,0.02-52.06c-0.07-1.7,0.05-3.58-0.98-5.06
			c-1.47-1.01-3.33-0.89-5.02-0.96C193.02,8.02,183.01,8,173,8c0-2.67,0-5.33,0-8h-5.94c-15.34,2.71-30.69,5.34-46.04,8.01
			c0,23.33,0,46.66,0,69.99c15.26,2.67,30.53,5.23,45.77,8H173c0-3,0-6,0-9c10.37-0.02,20.74,0.03,31.1,0
			c1.67-0.07,4.17-0.12,4.57-2.2C209.28,71.93,208.96,68.96,209.01,66.05z M150.47,58.65c-1.7-4.17-3.77-8.2-4.99-12.561
			c-1.36,4.061-3.3,7.891-4.86,11.87c-2.19-0.03-4.38-0.12-6.57-0.21c2.57-5.03,5.05-10.1,7.7-15.1c-2.25-5.15-4.72-10.2-7.04-15.32
			c2.2-0.13,4.4-0.26,6.6-0.38c1.49,3.91,3.12,7.77,4.35,11.78c1.32-4.25,3.29-8.25,4.98-12.36c2.26-0.16,4.53-0.3,6.8-0.41
			c-2.67,5.47-5.35,10.94-8.07,16.39c2.75,5.6,5.56,11.16,8.32,16.759C155.28,58.97,152.88,58.82,150.47,58.65z M206,74
			c-11,0-22,0-33,0c0-2,0-4,0-6c2.67,0,5.33,0,8,0c0-2.33,0-4.67,0-7c-2.67,0-5.33,0-8,0c0-1.33,0-2.67,0-4c2.67,0,5.33,0,8,0
			c0-2.33,0-4.67,0-7c-2.67,0-5.33,0-8,0c0-1.33,0-2.67,0-4c2.67,0,5.33,0,8,0c0-2.33,0-4.67,0-7c-2.67,0-5.33,0-8,0
			c0-1.33,0-2.67,0-4c2.67,0,5.33,0,8,0c0-2.33,0-4.67,0-7c-2.67,0-5.33,0-8,0c0-1.33,0-2.67,0-4c2.67,0,5.33,0,8,0
			c0-2.33,0-4.67,0-7c-2.67,0-5.33,0-8,0c0-2,0-4,0-6c11,0,22,0,33,0C206,32,206,53,206,74z"/>
	</g>
</g>
<path fill="#207245" d="M185,17c4.67,0,9.33,0,14,0c0,2.33,0,4.67,0,7c-4.67,0-9.33,0-14,0C185,21.67,185,19.33,185,17z"/>
<path fill="#207245" d="M185,28c4.67,0,9.33,0,14,0c0,2.33,0,4.67,0,7c-4.67,0-9.33,0-14,0C185,32.67,185,30.33,185,28z"/>
<path fill="#207245" d="M185,39c4.67,0,9.33,0,14,0c0,2.33,0,4.67,0,7c-4.67,0-9.33,0-14,0C185,43.67,185,41.33,185,39z"/>
<path fill="#207245" d="M185,50c4.67,0,9.33,0,14,0c0,2.33,0,4.67,0,7c-4.67,0-9.33,0-14,0C185,54.67,185,52.33,185,50z"/>
<path fill="#207245" d="M185,61c4.67,0,9.33,0,14,0c0,2.33,0,4.67,0,7c-4.67,0-9.33,0-14,0C185,65.67,185,63.33,185,61z"/>
</svg>
