<?xml version="1.0" encoding="utf-8"?>
<!-- Generator: Adobe Illustrator 16.0.0, SVG Export Plug-In . SVG Version: 6.00 Build 0)  -->
<!DOCTYPE svg PUBLIC "-//W3C//DTD SVG 1.1//EN" "http://www.w3.org/Graphics/SVG/1.1/DTD/svg11.dtd">
<svg version="1.1" id="Layer_1" xmlns="http://www.w3.org/2000/svg" xmlns:xlink="http://www.w3.org/1999/xlink" x="0px" y="0px"
	 width="88.024px" height="86px" viewBox="223.016 0 88.024 86" enable-background="new 223.016 0 88.024 86" xml:space="preserve">
<g>
	<g>
		<path fill="#D24625" d="M310.94,12.92c0.229-2.3-1.57-4.09-3.87-3.87C296.39,8.89,285.69,9.06,275,9c0-3,0-6,0-9h-5.67
			c-15.45,2.63-30.88,5.35-46.31,8.02c0,23.32-0.01,46.65,0,69.98c15.25,2.68,30.52,5.22,45.76,8H275c0-3.33,0-6.67,0-10
			c10.01,0,20.01-0.02,30.01,0.03c1.71-0.08,3.61,0.06,5.07-1c1.16-1.79,0.86-4.03,0.96-6.05C310.9,50.29,311.11,31.6,310.94,12.92z
			 M252.35,46.32c-2.27,1.16-4.87,1-7.34,0.92c-0.01,3.91-0.02,7.82-0.01,11.729c-1.98-0.17-3.97-0.34-5.95-0.5
			c-0.09-10.68-0.11-21.37,0.01-32.05c5.43,0.26,12.01-2.15,16.51,1.92C259.88,33.57,258.74,43.19,252.35,46.32z M308,73
			c-11,0-22,0-33,0c0-2.67,0-5.33,0-8c8,0,16,0,24,0c0-1.33,0-2.67,0-4c-8,0-16,0-24,0c0-1.67,0-3.33,0-5c8,0,16,0,24,0
			c0-1.33,0-2.67,0-4c-8,0-16,0-23.99,0c-0.01-1.96-0.01-3.92-0.02-5.88c3.96,1.229,8.47,1.2,12.01-1.181
			c3.83-2.27,5.83-6.6,6.16-10.919C288.77,33.99,284.38,34,280,34c-0.01-4.35,0.05-8.7-0.09-13.04c-1.64,0.32-3.28,0.66-4.91,1.01
			c0-3.32,0-6.65,0-9.97c11,0,22,0,33,0C308,32.33,308,52.67,308,73z"/>
	</g>
</g>
<path fill="#D24625" d="M282.01,18.87c6.95,0.32,12.79,6.17,13.16,13.1C290.78,32.02,286.39,32,282,32
	C282,27.62,281.99,23.24,282.01,18.87z"/>
<path fill="#D24625" d="M245,31.83c1.97-0.09,4.41-0.45,5.74,1.4c1.14,1.96,1.08,4.54,0.13,6.56c-1.14,2.06-3.72,1.86-5.71,2.1
	C244.95,38.54,244.97,35.19,245,31.83z"/>
</svg>
