<?xml version="1.0" encoding="utf-8"?>
<!-- Generator: Adobe Illustrator 16.0.0, SVG Export Plug-In . SVG Version: 6.00 Build 0)  -->
<!DOCTYPE svg PUBLIC "-//W3C//DTD SVG 1.1//EN" "http://www.w3.org/Graphics/SVG/1.1/DTD/svg11.dtd">
<svg version="1.1" id="Layer_1" xmlns="http://www.w3.org/2000/svg" xmlns:xlink="http://www.w3.org/1999/xlink" x="0px" y="0px"
	 width="88.024px" height="86px" viewBox="21.016 0 88.024 86" enable-background="new 21.016 0 88.024 86" xml:space="preserve">
<g>
	<g>
		<path fill="#2A5699" d="M108.94,11.88c0.21-2.28-1.58-4.05-3.86-3.82C94.39,7.89,83.7,8.06,73,8c0-2.67,0-5.33,0-8h-5.98
			c-15.33,2.73-30.67,5.34-46,8.02c0,23.32-0.01,46.65,0,69.98c15.25,2.67,30.51,5.22,45.73,8H73c0-2.67,0-5.33,0-8
			c10.01,0,20.01-0.02,30.02,0.03c1.7-0.08,3.59,0.05,5.05-0.99c1.17-1.79,0.87-4.03,0.97-6.05
			C108.9,51.29,109.11,31.58,108.94,11.88z M54.38,56.59c-1.67,0.87-4.17-0.04-6.15,0.1c-1.33-6.619-2.88-13.199-4.07-19.85
			c-1.17,6.46-2.69,12.86-4.03,19.28c-1.92-0.101-3.85-0.22-5.78-0.351c-1.66-8.8-3.61-17.54-5.16-26.359
			c1.71-0.08,3.43-0.15,5.14-0.21c1.03,6.37,2.2,12.71,3.1,19.09c1.41-6.54,2.85-13.08,4.25-19.62c1.9-0.11,3.8-0.19,5.7-0.29
			c1.33,6.75,2.69,13.49,4.13,20.21c1.13-6.94,2.38-13.86,3.59-20.79c2-0.07,4-0.18,5.99-0.3C58.83,37.19,56.85,46.96,54.38,56.59z
			 M106,75c-11,0-22,0-33,0c0-2.67,0-5.33,0-8c8.67,0,17.33,0,26,0c0-1.33,0-2.67,0-4c-8.67,0-17.33,0-26,0c0-1.67,0-3.33,0-5
			c8.67,0,17.33,0,26,0c0-1.33,0-2.67,0-4c-8.67,0-17.33,0-26,0c0-1.67,0-3.33,0-5c8.67,0,17.33,0,26,0c0-1.33,0-2.67,0-4
			c-8.67,0-17.33,0-26,0c0-1.67,0-3.33,0-5c8.67,0,17.33,0,26,0c0-1.33,0-2.67,0-4c-8.67,0-17.33,0-26,0c0-1.67,0-3.33,0-5
			c8.67,0,17.33,0,26,0c0-1.33,0-2.67,0-4c-8.67,0-17.33,0-26,0c0-1.67,0-3.33,0-5c8.67,0,17.33,0,26,0c0-1.33,0-2.67,0-4
			c-8.67,0-17.33,0-26,0c0-2.33,0-4.67,0-7c11,0,22,0,33,0C106,32.33,106,53.67,106,75z"/>
	</g>
</g>
</svg>
