<?xml version="1.0" encoding="utf-8"?>
<!-- Generator: Adobe Illustrator 16.0.0, SVG Export Plug-In . SVG Version: 6.00 Build 0)  -->
<!DOCTYPE svg PUBLIC "-//W3C//DTD SVG 1.1//EN" "http://www.w3.org/Graphics/SVG/1.1/DTD/svg11.dtd">
<svg version="1.1" id="_x31_" xmlns="http://www.w3.org/2000/svg" xmlns:xlink="http://www.w3.org/1999/xlink" x="0px" y="0px"
	 width="696px" height="170px" viewBox="29.958 90.486 696 170" enable-background="new 29.958 90.486 696 170"
	 xml:space="preserve">
<g>
	<path fill="#2E3192" d="M329.958,240.486c0,11-9,20-20,20h-260c-11,0-20-9-20-20v-130c0-11,9-20,20-20h260c11,0,20,9,20,20V240.486
		z"/>
</g>
<g>
	<path fill="#FFF200" d="M85.468,195.001l-12.405-73.685H52.458v107.904h12.829v-85.015l13.504,85.012h13.251l13.605-85.012v85.012
		h12.829V121.316H97.775L85.468,195.001z M307.458,139.563v-18.244h-46.772v107.902h13.739v-45.861h28.608v-18.244h-28.608v-25.551
		L307.458,139.563L307.458,139.563z"/>
	<g>
		<g>
			<path fill="#FFFFFF" d="M175.277,147.593c3.313-0.573,5.025-4.054,8.279-4.448c3.25-0.402,9.295,3.937,11.809,4.283
				c2.513,0.334,2.905,0.741,6.221,1.195c3.316,0.455,3.542,0,4.857-0.574c0.51-0.22,0.915-0.42,1.235-0.583
				c-5.709-3.837-12.589-6.073-19.978-6.073c-9.425,0-18.004,3.633-24.405,9.575c2.271,0.048,4.628-0.825,6.274-1.543
				C172.311,148.219,171.964,148.169,175.277,147.593z M219.108,159.911c-0.177-0.063-0.334-0.154-0.451-0.269
				c-0.483-0.484-0.347,0.332-0.803,1.303c-0.452,0.971-0.378,1.287-0.378,1.287s-0.359,0.377-0.814,0.377
				c-0.471,0,0.025-0.258-0.515-0.803c-0.544-0.543,0-1.423,0-2.738c0-1.317,0.394-1.258,0.845-2.227
				c0.039-0.076,0.057-0.145,0.067-0.188c-0.089-0.129-0.164-0.24-0.256-0.364c-0.427-0.103-1.259,0.171-1.46,0.388
				c-0.318,0.303-1.145,0-1.484,0c-0.346,0-1.423,0-1.937-0.515c-0.516-0.515-0.288-0.288-2.921-0.575
				c-2.617-0.288-0.513,0.908-0.513,1.423s0,1.663,0,1.663l0.178,2.501c0,0-0.087,0.724-0.406,1.027
				c-0.306,0.317-1.396,0.666-2.589,1.483c-1.195,0.83,0,0.377-1.635,1.998c-1.619,1.633-0.332,0.692-0.332,1.662
				c0,0.969,1.076,0.969,1.076,0.969s1.026-0.285,1.892-0.285c0.849,0,1.078-0.287,1.769-0.287c0.683,0,1.366-1.879,1.366-1.879
				s0.286-1.438,0.634-2.283c0.333-0.862,0-0.918,0-1.664c0-0.741-0.12-1.137-0.12-1.137s-0.196-0.65-0.911-1.362
				c-0.711-0.728-0.345-0.349,0.167-1.487c0.516-1.146,0,0,1.83-0.283c1.817-0.287,0.334,1.256,1.137,2.043
				c0.802,0.804-0.337,1.485-0.337,2s0.533,0.543,1.018,1.027c0.483,0.484,0.695,0,0.695,0.516c0,0.515,0,1.543,0,1.543
				s-1.09,0.455-1.376,0.455c-0.288,0-0.337,0.287-1.258,1.195c-0.907,0.924-0.651,0.664-0.969,0.971
				c-0.317,0.316-0.061,0.636-0.061,1.088c0,0.455-0.968,1.484-0.968,1.484s-1.313,0-2.968,0c-1.649,0-1.176,1.215-1.563,1.604
				c-0.373,0.372,0.328,0.265,0,1.215c-0.314,0.948-0.018,0.573-0.806,2.64c-0.446,1.141-0.521,1.314-0.532,1.315
				c-0.005,0.018-0.014,0.042-0.023,0.081c-0.14,0.434-0.115,0.201-1.482,1.283c-0.752,0.603-0.708,0.428-0.927,0.428
				c-0.952,0-0.497-0.35-0.678-0.684c-0.164-0.348,0.555-0.842,0.844-1.129c0.286-0.287,0.61-0.402,0.927-0.723
				c0.317-0.316,0.37-1.813,0.474-2.382c0.121-0.563,0.227-1.447,0.227-2.375c0-0.931-0.106-0.597-0.681-0.742
				c-0.575-0.146-1.088,0.414-1.596-0.31c-0.508-0.721,0.813-1.233,0.813-2.125c0-0.899-1.342-0.721-2.02-0.553
				c-0.659,0.166-1.442,1.998-1.442,2.57c0,0.563,1.158,1.896,1.158,2.146c0,0.248,0.165,0.617-0.406,1.174
				c-0.569,0.568,0,0.236,0,1.377c0,1.125,0.9,1.125-0.54,2.027c-0.459,0.291-0.347,0.236-0.775,0.236
				c-0.411,0,0.063-0.604,0.063-1.38c0-0.772-0.589-1.063-0.589-1.063s-1.201,1.364-1.614,1.776
				c-0.413,0.427-2.679,1.201-3.214,1.201c-0.536,0-2.029,0.413-2.504,0.89c-0.476,0.475-0.411,1.076-0.411,1.854
				c0,0.765,0.556,0.744,0.824,1.012c0.268,0.258,0.364,0.768,0.364,1.779c0,1.015-0.539,0.9-1.188,1.552
				c-0.664,0.651-0.238,0.603-0.966,0.603c-0.714,0-0.525,0.474-0.525,0.773c0,0.288-0.365,1.252-0.365,1.252
				s-0.174,2.741,0.176,3.09c0.362,0.363,0.457,1.046,1.076,1.664c0.631,0.635,1.158,0.744,1.614,1.202
				c0.446,0.442,1.602,0.889,2.616,1.254c1.013,0.349,1.075,0.235,3.041,1.123c1.964,0.897,0.238,1.078-0.416,1.078
				c-0.661,0-1.912-0.479-3.039-0.479c-1.137,0-1.788-0.299-3.752-1.724c-1.964-1.442-1.615-2.153-2.503-2.456
				c-0.903-0.286-3.644-1.838-3.644-3.216c0-1.36,1.617-2.679,1.617-2.679c0-0.355,0.029-0.602,0.115-0.691
				c0.083-0.089,0.507,0.092,0.718,0.288c0.198,0.198,0.791-0.119,1.108-0.119c0.318,0,0.229-0.106,0.638-0.106
				c0.396,0,0.108-0.287,0.108-0.972c0-0.696,0.059-0.438-0.502-0.985c-0.562-0.563-0.502-0.502-1.154-0.736
				c-0.666-0.231-0.258,0.234-0.457,0.769c-0.211,0.548-0.091,0.773-0.091,1.152c0,0.366-0.368,0.479-0.833,0.021
				c-0.457-0.453,0-1.978,0-1.978s-2.743-0.308-2.743-1.685c0-1.363-0.906-2.125-0.906-4.41s-2.594,1.07-2.594,1.07
				s0,1.215-4.557,2.577c-4.57,1.377,0,0.613,0,2.738c0,2.142,0.908,1.229,0.908,3.207c0,0.846,0,1.221,0,1.364
				c0,0-1.751-1.754-3.341-3.344c-1.604-1.604-1.23,0-2.284-1.066c-1.069-1.07-0.162-1.377-1.978-3.192
				c-1.832-1.832,0-2.284-1.684-3.957c-1.672-1.686-3.65-1.377-3.65,0c0,1.363,0,1.218-0.612,1.816
				c-0.602,0.614-1.138,2.364-1.98,3.192c-0.825,0.842-1.511,4.117-1.511,4.879c0,0.557-1.692,2.703-2.61,3.84
				c5.094,13.646,18.229,23.359,33.639,23.359c6.27,0,12.152-1.617,17.286-4.441c-0.073-0.278-0.08-0.662,0-1.145
				c0,0-1.852-0.299-2.803-0.299c-0.951,0,0,1.186-1.139,1.186c-1.124,0-1.839,0.539-2.739,0.539c-0.887,0-1.125,0.303-1.902,0.303
				c-0.775,0-2.266,0.363-2.266,0.063s-0.03-1.646-0.298-1.91c-0.27-0.264-0.777,0.244-0.777-0.771c0-1.013-1.065-0.839-0.177-1.728
				c0.894-0.901,1.315-1.613,2.03-1.613c0.712,0,1.124-0.715,1.963-1.077c0.84-0.351,0.776-0.89,1.664-1.302
				c0.901-0.424,0.965-0.482,1.22-0.742c0.269-0.271,1.583-0.745,2.059-0.745c0.476,0,1.106,0.079,1.551-0.362
				c0.444-0.447-0.444-0.447,0.54-1.428s0.65-0.98,1.365-0.98c0.712,0,1.359,0.635,1.834,1.108c0.476,0.478,0.015,1.833,0.729,2.072
				c0.713,0.237,1.253,0.002,1.728-0.474c0.473-0.478,0.362-1.19,0.362-1.672c0-0.48-0.188-1.436-0.188-1.436l-0.589-0.537
				c0,0,0,0.063-0.837-0.77c-0.839-0.832-1.315-1.492-1.315-1.492s-0.651-1.065-1.063-0.653c-0.426,0.411-0.712,1.188-0.712,1.188
				s-0.428,1.313-0.902,1.313c-0.474,0-0.299-0.839-1.123,0c-0.839,0.84-1.616,1.79-1.964,1.79c-0.365,0-0.727,0.236-1.14,0.236
				c-0.413,0-0.413-0.125-0.413-0.713c0-0.602,0.063-0.899,0.65-1.488c0.601-0.6,1.077-1.014,1.614-1.014
				c0.538,0,1.364-0.537,1.364-0.537s0.179-0.414,0.179-1.129c0-0.727,0-0.123,0-1.073c0-0.951,1.789-2.394,1.789-2.394
				s0.599,0.189,0.776,0c0.174-0.174-0.475-0.824,0.869,0.508c1.333,1.347,1.87,1.105,1.87,1.105s0.301-0.361,0.777,0.116
				c0.473,0.487,1.426,0.601,1.426,0.601s1.376,0.647,1.376,0.895c0,0.242,0.539,0.595,0.953,0.595c0.41,0,0.887-0.476,0.887-0.476
				s0.839-0.838,0.839-1.252c0-0.412,0.412-1.313,1.013-1.313c0.602,0,1.314,0.664,1.314,1.68c0,1.012,1.014,2.739-1.076,2.074
				c-2.09-0.648-1.315,0.475-1.315,1.25s-1.362,1.141-1.362,1.141s-0.84,0.713-0.84,1.603c0,0.901-0.951,0-0.951,1.552
				c0,1.551-0.175,1.9,0.298,2.377c0.314,0.313,1.052,0.48,1.529,0.543c6.149-6.443,9.938-15.168,9.938-24.773
				C223.6,170.979,221.961,165.057,219.108,159.911z M194.38,192.516c-2.373,0.273-3.035-0.108-3.035-0.791s-0.55-0.896-1.026-0.992
				c-0.481-0.107-0.609-0.164-0.753-0.604c-0.132-0.438,0-0.938,0.656-0.849c0.646,0.078,1.064-0.107,1.345-0.107
				c0.296,0,0.37-0.359,1.21-0.681c0.831-0.329,1.789-0.056,2.008-0.698c0.235-0.658-0.256-0.918,0.367-0.993
				c0.62-0.09,0.885-0.569,1.232-0.569c0.347,0,1.047-0.291,1.132,0.057c0,0,0.686,0.574,0.505,0.939
				c-0.166,0.351,0,0.291-0.573,0.422c-0.585,0.146-0.938-0.312-1.084,0.402c-0.13,0.698,0.406,0.938-0.07,1.604
				C195.815,190.314,196.766,192.238,194.38,192.516z M200.27,193.527c-0.99,0.375-2.354,0.375-2.354,0.375
				s-0.762,0.843-1.215-0.536c-0.455-1.362-0.721-2.39-0.455-2.658c0.267-0.267,0.828-1.442,1.443-1.442
				c0.6,0,0.721-1.257,1.296-0.695c0.562,0.574,0.99,0.162,0.99,1.379c0,0-0.696,0.762-0.696,1.67
				C199.279,192.538,201.259,193.141,200.27,193.527z M202.67,190.531c-0.218,0.221-1.543-0.334-1.543-0.334l-1.15-2.254
				l-0.493-2.137c0,0-0.058,0.813-0.552,0.318c-0.497-0.495-0.989-0.874-0.989-1.586c0-0.713-0.438,0.275-0.222-1.104
				c0.222-1.369,0.276-0.653,0.276-1.816c0-1.151,0-1.21,0-1.762c0-0.539-0.334-2.254,0.436-1.483
				c0.903,0.916,0.825,0.333,1.15,1.542c0.336,1.208,1.236,1.703,1.236,2.123c0,0.409,0.204,0.975,0,1.179
				c-0.205,0.204-0.743,0.771-0.568,0.933c0.162,0.174,0.713,0.219,0.713,1.207s0,1.383,0,1.762c0,0.393,0.219,0.941,0.219,1.438
				C201.186,189.047,202.89,190.303,202.67,190.531z"/>
		</g>
		<path fill="#FFF200" d="M146.22,169.963l-3.334-0.896l-1.458-1.982l5.866-1.102l0.641-2.357l-7.71,1.773l-3.382-4.584
			l-0.661,2.463l3.911,5.033l-4.911-1.332l-0.493,1.826l11.04,2.987L146.22,169.963z M152.563,155.191l-4.042-2.961l2.201-3.008
			l4.034,2.963l1.12-1.525l-9.237-6.75l-1.114,1.525l3.629,2.651l-2.193,3.008l-3.636-2.651l-1.113,1.518l9.237,6.745
			L152.563,155.191z M163.075,144.092l-0.763-2.598l3.145-2.038l2.106,1.726l1.72-1.125l-9.381-7.537l-1.69,1.084l3.176,11.59
			L163.075,144.092z M163.896,138.164l-2.156,1.393l-1.245-4.255L163.896,138.164z M175.728,137.49l7.429-1.715l-0.428-1.879
			l-5.199,1.188l3.285-8.658l-0.408-1.749l-6.692,1.533l0.429,1.881l4.264-0.974l-3.143,8.331L175.728,137.49z M196.969,133.49
			l0.501,2.668l2.038,0.249l-2.342-11.816l-1.992-0.243l-5.02,10.92l1.997,0.244l1.091-2.484L196.969,133.49z M195.822,127.117
			l0.77,4.378l-2.55-0.315L195.822,127.117z M211.928,133.155l-0.184,8.354l1.69,0.903l5.374-10.104l-1.561-0.82l-3.583,6.744
			l0.202-8.553l-1.634-0.873l-5.375,10.104l1.562,0.833L211.928,133.155z M223.434,147.518l2.471,2.836l-1.414,2.326l1.355,1.536
			l6.147-10.346l-1.323-1.513l-11.012,4.767l1.313,1.521L223.434,147.518z M229.316,144.855l-2.354,3.767l-1.684-1.931
			L229.316,144.855z M230.307,162.758l4.695-1.719l1.28,3.496l-4.693,1.719l0.643,1.775l10.745-3.932l-0.645-1.774l-4.229,1.552
			l-1.279-3.495l4.226-1.553l-0.654-1.772l-10.745,3.928L230.307,162.758z M150.229,199.846l1.73-0.854l-3.317-6.684l-1.739,0.868
			l1.243,2.494l-8.506,4.235l0.841,1.688l8.511-4.234L150.229,199.846z M157.969,206.073l-2.87-2.765l-7.93,8.248l1.362,1.313
			l3.313-3.442l0.283,0.272c0.311,0.291,0.507,0.543,0.597,0.754c0.08,0.193,0.109,0.438,0.078,0.727
			c-0.031,0.286-0.174,0.918-0.442,1.91l-0.737,2.744l1.628,1.568l0.724-2.407c0.287-0.96,0.461-1.655,0.505-2.087
			c0.049-0.441,0.026-0.901-0.058-1.395c0.665,0.452,1.338,0.627,2.022,0.526c0.698-0.087,1.347-0.466,1.974-1.106
			c0.488-0.509,0.8-1.047,0.957-1.609c0.144-0.564,0.13-1.068-0.037-1.52C159.166,207.357,158.703,206.775,157.969,206.073z
			 M157.352,208.913c-0.052,0.263-0.197,0.524-0.449,0.786c-0.264,0.275-0.528,0.441-0.792,0.507
			c-0.265,0.056-0.508,0.03-0.727-0.067c-0.22-0.113-0.648-0.457-1.261-1.057l-1.013-0.973l2.012-2.102l1.06,1.028
			c0.618,0.593,0.973,0.962,1.051,1.137C157.362,208.406,157.401,208.654,157.352,208.913z M160.893,222.25l6.486,2.967l0.794-1.76
			l-4.77-2.18l1.293-2.828l4.288,1.973l0.806-1.754l-4.289-1.969l1.06-2.301l4.606,2.104l0.808-1.76l-6.333-2.893L160.893,222.25z
			 M181.162,217.105l-5.51,10.67l1.984,0.341l1.201-2.437l3.708,0.633l0.37,2.688l2.025,0.352l-1.803-11.906L181.162,217.105z
			 M179.732,223.879l1.959-3.975l0.572,4.396L179.732,223.879z M200.224,224.038c-0.274-0.454-0.641-0.82-1.089-1.082
			c-0.447-0.263-1.157-0.479-2.134-0.657c-0.929-0.16-1.516-0.347-1.788-0.529c-0.271-0.184-0.43-0.435-0.447-0.744
			c-0.033-0.32,0.069-0.59,0.322-0.836c0.255-0.235,0.643-0.377,1.15-0.43c0.507-0.055,0.906,0.033,1.206,0.249
			c0.301,0.214,0.52,0.632,0.657,1.228l1.886-0.291c-0.153-1.096-0.561-1.918-1.231-2.454c-0.686-0.534-1.567-0.746-2.667-0.634
			c-0.731,0.076-1.323,0.263-1.808,0.565c-0.47,0.293-0.814,0.714-1.049,1.24c-0.229,0.522-0.321,1.089-0.257,1.717
			c0.056,0.535,0.212,1.022,0.477,1.457c0.266,0.44,0.592,0.789,1,1.036c0.396,0.249,1.017,0.453,1.832,0.611
			c0.933,0.184,1.508,0.328,1.754,0.426c0.243,0.085,0.443,0.224,0.566,0.391c0.141,0.163,0.208,0.376,0.235,0.637
			c0.046,0.448-0.08,0.832-0.372,1.164c-0.297,0.321-0.729,0.526-1.302,0.57c-1.146,0.121-1.895-0.536-2.251-1.98l-1.824,0.408
			c0.516,2.571,1.928,3.756,4.205,3.531c1.298-0.138,2.213-0.563,2.756-1.295c0.544-0.732,0.765-1.602,0.675-2.591
			C200.657,225.068,200.492,224.493,200.224,224.038z M214.539,218.219l-2.681-5.369l-1.688,0.853l2.82,5.657
			c0.508,1.02,0.797,1.701,0.865,2.063c0.066,0.349,0.016,0.677-0.152,0.979c-0.155,0.285-0.434,0.531-0.818,0.74
			c-0.462,0.229-0.903,0.281-1.305,0.186c-0.4-0.112-0.758-0.373-1.063-0.784c-0.166-0.237-0.47-0.791-0.898-1.646l-2.769-5.547
			l-1.685,0.85l2.725,5.458c0.767,1.521,1.396,2.516,1.9,2.987c0.506,0.459,1.09,0.723,1.73,0.783
			c0.655,0.07,1.417-0.109,2.287-0.543c0.847-0.432,1.421-0.965,1.751-1.59c0.33-0.633,0.401-1.302,0.249-1.98
			C215.652,220.63,215.221,219.6,214.539,218.219z M226.402,209.802c-0.44-0.054-0.9-0.034-1.393,0.058
			c0.448-0.659,0.641-1.346,0.542-2.029c-0.096-0.686-0.452-1.34-1.102-1.969c-0.505-0.494-1.036-0.822-1.591-0.973
			c-0.562-0.147-1.067-0.143-1.517,0.023c-0.449,0.165-1.035,0.611-1.748,1.341l-2.788,2.863l8.187,7.989l1.322-1.358l-3.414-3.326
			l0.263-0.28c0.305-0.314,0.559-0.51,0.752-0.598c0.212-0.074,0.454-0.1,0.739-0.072c0.276,0.025,0.92,0.19,1.908,0.467
			l2.739,0.756l1.582-1.619l-2.399-0.744C227.529,210.027,226.834,209.857,226.402,209.802z M223.639,208.886
			c-0.114,0.218-0.475,0.632-1.067,1.253l-0.979,1.006l-2.083-2.028l1.038-1.065c0.599-0.601,0.969-0.949,1.129-1.042
			c0.244-0.11,0.492-0.147,0.743-0.097c0.259,0.053,0.52,0.199,0.781,0.454c0.272,0.266,0.448,0.53,0.503,0.797
			C223.764,208.427,223.741,208.668,223.639,208.886z M229.786,191.667l-1.081,1.886l2.863,4.137l-5.025-0.328l-1.099,1.927
			l7.449,0.294l4.198,2.391l0.93-1.649l-4.166-2.368L229.786,191.667z"/>
	</g>
</g>
<text transform="matrix(1 0 0 1 369.958 218.5557)" fill="#ECF0F1" font-family="'Roboto-Bold'" font-size="120">eGPA</text>
</svg>
